<svg width="21" height="20" viewBox="0 0 21 20" fill="none" xmlns="http://www.w3.org/2000/svg">
<path d="M10.7631 0C5.25406 0 0.789062 4.465 0.789062 9.974C0.789062 14.38 3.64606 18.119 7.61006 19.439C8.10906 19.529 8.28906 19.222 8.28906 18.958C8.28906 18.721 8.28106 18.093 8.27806 17.262C5.50306 17.864 4.91706 15.924 4.91706 15.924C4.46506 14.772 3.81006 14.465 3.81006 14.465C2.90506 13.846 3.87906 13.86 3.87906 13.86C4.88106 13.93 5.40606 14.888 5.40606 14.888C6.29606 16.412 7.74206 15.972 8.30806 15.717C8.39906 15.072 8.65906 14.632 8.94306 14.383C6.72906 14.132 4.40106 13.276 4.40106 9.453C4.40106 8.366 4.79006 7.474 5.42506 6.778C5.32406 6.525 4.97906 5.51 5.52406 4.138C5.52406 4.138 6.36106 3.869 8.26606 5.159C9.06406 4.938 9.91506 4.827 10.7621 4.823C11.6111 4.827 12.4631 4.938 13.2581 5.159C15.1641 3.868 16.0001 4.138 16.0001 4.138C16.5451 5.51 16.2031 6.525 16.0991 6.778C16.7391 7.474 17.1231 8.365 17.1231 9.453C17.1231 13.286 14.7931 14.128 12.5711 14.375C12.9261 14.683 13.2461 15.291 13.2461 16.221C13.2461 17.555 13.2341 18.631 13.2341 18.958C13.2341 19.225 13.4121 19.535 13.9211 19.437C17.8831 18.115 20.7371 14.379 20.7371 9.974C20.7371 4.465 16.2721 0 10.7631 0Z" fill="#272727"/>
</svg>
