<svg width="19" height="19" viewBox="0 0 19 19" fill="none" xmlns="http://www.w3.org/2000/svg">
<path d="M17.9973 8.10276H9.67033V11.5538H14.4623C14.0163 13.7468 12.1493 15.0068 9.67033 15.0068C6.74733 15.0068 4.39133 12.6508 4.39133 9.72676C4.39133 6.80376 6.74733 4.44776 9.67033 4.44776C10.9293 4.44776 12.0673 4.89476 12.9603 5.62576L15.5603 3.02676C13.9763 1.64576 11.9453 0.793762 9.67033 0.793762C4.71633 0.793762 0.736328 4.77276 0.736328 9.72776C0.736328 14.6828 4.71533 18.6618 9.67033 18.6618C14.1373 18.6618 18.1993 15.4128 18.1993 9.72776C18.1993 9.19976 18.1183 8.63076 17.9973 8.10276Z" fill="#DB4437"/>
</svg>
