<svg width="20" height="17" viewBox="0 0 20 17" fill="none" xmlns="http://www.w3.org/2000/svg">
<path d="M17.7697 4.72477C17.7827 4.89977 17.7827 5.07377 17.7827 5.24777C17.7827 10.5728 13.7297 16.7088 6.32272 16.7088C4.04072 16.7088 1.92072 16.0478 0.136719 14.8998C0.460719 14.9368 0.772719 14.9498 1.10972 14.9498C2.99272 14.9498 4.72572 14.3138 6.11072 13.2288C4.33972 13.1918 2.85572 12.0318 2.34372 10.4358C2.59272 10.4728 2.84272 10.4978 3.10472 10.4978C3.46572 10.4978 3.82872 10.4478 4.16572 10.3608C2.31872 9.98677 0.935719 8.36576 0.935719 6.40776V6.35777C1.47272 6.65676 2.09572 6.84377 2.75572 6.86877C1.67072 6.14677 0.959719 4.91177 0.959719 3.51477C0.959719 2.76677 1.15872 2.08077 1.50772 1.48277C3.49072 3.92577 6.47172 5.52277 9.81372 5.69777C9.75172 5.39777 9.71372 5.08676 9.71372 4.77477C9.71372 2.55476 11.5097 0.746765 13.7417 0.746765C14.9017 0.746765 15.9487 1.23277 16.6847 2.01877C17.5947 1.84377 18.4667 1.50677 19.2407 1.04577C18.9417 1.98077 18.3047 2.76677 17.4697 3.26577C18.2807 3.17777 19.0667 2.95377 19.7887 2.64177C19.2407 3.43976 18.5557 4.15076 17.7697 4.72477Z" fill="#1DA1F2"/>
</svg>
