<svg width="20" height="20" viewBox="0 0 20 20" fill="none" xmlns="http://www.w3.org/2000/svg">
<path d="M10.0013 5.83333C7.7013 5.83333 5.83464 7.7 5.83464 10C5.83464 12.3 7.7013 14.1667 10.0013 14.1667C12.3013 14.1667 14.168 12.3 14.168 10C14.168 7.7 12.3013 5.83333 10.0013 5.83333ZM10.0013 1.66667C5.4013 1.66667 1.66797 5.4 1.66797 10C1.66797 14.6 5.4013 18.3333 10.0013 18.3333C14.6013 18.3333 18.3346 14.6 18.3346 10C18.3346 5.4 14.6013 1.66667 10.0013 1.66667ZM10.0013 16.6667C6.31797 16.6667 3.33464 13.6833 3.33464 10C3.33464 6.31667 6.31797 3.33333 10.0013 3.33333C13.6846 3.33333 16.668 6.31667 16.668 10C16.668 13.6833 13.6846 16.6667 10.0013 16.6667Z" fill="#E7E3FC" fill-opacity="0.87"/>
</svg>
